<?xml version="1.0" encoding="utf-8"?>
<!-- Generator: Adobe Illustrator 23.0.3, SVG Export Plug-In . SVG Version: 6.00 Build 0)  -->
<svg version="1.1" id="Layer_1" xmlns="http://www.w3.org/2000/svg" xmlns:xlink="http://www.w3.org/1999/xlink" x="0px" y="0px"
	 viewBox="0 0 16 16" style="enable-background:new 0 0 16 16;" xml:space="preserve">
<style type="text/css">
	.st0{fill-rule:evenodd;clip-rule:evenodd;}
</style>
<g>
	<g id="椭圆_2_拷贝_5_4_">
		<g>
			<path class="st0" d="M11.6,14.4c-0.8,0-1.5-0.3-2.1-0.8c-0.5,0.1-1.1,0.1-1.6,0.1c-0.6,0-1.1,0-1.6-0.1c-0.6,0.4-1.3,0.7-2.1,0.7
				c-0.4,0-0.7-0.1-1-0.1c0.9,0.9,2.1,1.4,3.4,1.4c0.6,0,1.1-0.1,1.6-0.3c1.3,0.4,2.7,0.3,3.9-0.4c0.5-0.3,0.9-0.6,1.2-1
				C12.7,14.3,12.2,14.4,11.6,14.4z"/>
		</g>
	</g>
	<g id="椭圆_2_拷贝_6_3_">
		<g>
			<path class="st0" d="M5.2,0.9C4,1.2,2.9,1.9,2.3,3.1C2,3.6,1.8,4.1,1.7,4.6c-1,0.9-1.6,2.2-1.6,3.6c0,0.5,0.1,1.1,0.3,1.6
				c0-0.6,0.1-1.1,0.4-1.7C1.1,7.5,1.7,7,2.3,6.8c0.2-0.5,0.4-1,0.7-1.5c0.3-0.6,0.7-1.1,1.1-1.5C4,3.1,4.2,2.3,4.6,1.7
				C4.8,1.4,5,1.1,5.2,0.9z"/>
		</g>
	</g>
	<g id="椭圆_2_拷贝_7_4_">
		<g>
			<path class="st0" d="M15.2,5.7c-0.3-0.5-0.6-0.9-1-1.3c-0.3-1.3-1.1-2.5-2.3-3.2c-0.5-0.3-1-0.5-1.5-0.6c0.5,0.3,0.9,0.7,1.2,1.2
				c0.4,0.7,0.5,1.5,0.4,2.2c0.4,0.4,0.7,0.9,1,1.4C13.3,6,13.5,6.5,13.7,7c0.7,0.3,1.3,0.8,1.6,1.5c0.2,0.3,0.3,0.6,0.4,1
				C16,8.2,15.9,6.9,15.2,5.7z"/>
		</g>
	</g>
	<g>
		<path d="M0.1,7.9c0-0.3,0.1-0.5,0.1-0.8c0-0.1,0.1-0.2,0.1-0.3c0.2,0.9,0.4,1.8,0.7,2.6c0.1-0.3,0.1-0.6,0.2-0.9c0,0,0,0,0,0
			c0.2,0.9,0.6,1.8,1.1,2.7c-0.3,0.2-0.6,0.3-0.9,0.5c0.1,0.1,0.1,0.3,0.2,0.4c0.3-0.2,0.6-0.4,0.9-0.5c0.5,0.9,1.2,1.7,2,2.4
			c0,0,0,0,0,0c-0.2-0.1-0.5-0.1-0.7-0.2c0,0,0,0,0,0c0.4,0.3,0.7,0.7,1.1,1C5.2,15,5.6,15.3,6,15.6c-0.3-0.1-0.6-0.1-0.9-0.2
			c-1.3-0.4-2.3-1.2-2.9-2.4c0-0.1-0.1-0.1-0.2-0.2c-0.6-0.4-1-0.9-1-1.6c0-0.1,0-0.2-0.1-0.2c-0.5-0.7-0.8-1.5-0.8-2.3
			c0,0,0-0.1,0-0.1C0.1,8.3,0.1,8.1,0.1,7.9z"/>
	</g>
	<g>
		<path d="M8.1,0.4c0.3,0.1,0.6,0.1,0.8,0.3c0,0,0.1,0,0.1,0c1.6-0.1,2.9,0.4,4,1.5c0,0,0,0,0,0c-0.5-0.1-0.9-0.3-1.4-0.4
			c-0.5-0.1-0.9-0.2-1.4-0.3c0.3,0.3,0.6,0.5,0.9,0.8c0,0,0,0,0,0c-1-0.3-1.9-0.4-2.9-0.4c0-0.4,0-0.8,0-1.2c-0.1,0-0.3,0-0.4,0
			c0,0.4,0,0.8,0,1.2c-1,0-2,0.2-2.9,0.5c0,0,0,0,0,0C5,2.1,5.2,1.9,5.4,1.7c-1,0.2-1.9,0.6-2.8,1c0,0,0-0.1,0.1-0.1
			c0.9-1.1,2-1.7,3.4-1.9c0.2,0,0.5,0,0.7,0c0,0,0.1,0,0.1,0c0.3-0.2,0.6-0.3,0.9-0.3C7.9,0.4,8,0.4,8.1,0.4z"/>
	</g>
	<g>
		<path d="M12.6,13.6c-0.6,0.7-1.2,1.3-1.9,1.9c0.1,0,0.1,0,0.1,0c1.5-0.4,2.6-1.3,3.3-2.6c0-0.1,0.1-0.1,0.2-0.2
			c0.6-0.4,0.9-0.9,0.9-1.7c0-0.1,0-0.1,0-0.2c0.7-1.1,1-2.3,0.7-3.7c-0.1-0.3-0.2-0.6-0.3-1c0,0,0,0,0,0c0,0.2,0,0.5-0.1,0.7
			c0,0.2-0.1,0.5-0.1,0.7c0,0.2-0.1,0.5-0.1,0.7C15.1,8.6,15,8.8,15,9.1c-0.1-0.3-0.2-0.5-0.2-0.7c0,0,0,0,0,0
			c-0.2,1-0.6,1.9-1.1,2.8c0.3,0.2,1,0.5,1.3,0.6c-0.1,0.1-0.1,0.3-0.3,0.4c-0.3-0.2-0.9-0.5-1.2-0.7c-0.5,0.9-1.1,1.6-1.8,2.3
			c0,0,0,0,0,0C11.9,13.8,12.2,13.7,12.6,13.6z"/>
		<path d="M12.6,13.6c-0.3,0.1-0.6,0.2-0.9,0.3c0,0,0,0,0,0c0.7-0.7,1.3-1.4,1.8-2.3c0.3,0.2,1,0.5,1.3,0.7c0.1-0.1,0.2-0.3,0.2-0.4
			c-0.3-0.2-1-0.5-1.3-0.6c0.5-0.9,0.9-1.8,1.1-2.8c0,0,0,0,0,0c0.1,0.2,0.1,0.5,0.2,0.7c0.1-0.3,0.1-0.5,0.2-0.7
			c0.1-0.2,0.1-0.5,0.1-0.7c0-0.2,0.1-0.5,0.1-0.7c0-0.2,0.1-0.5,0.1-0.7c0,0,0,0,0,0c0.1,0.3,0.2,0.6,0.3,1c0.3,1.3,0,2.5-0.7,3.7
			c0,0,0,0.1,0,0.2c0,0.7-0.3,1.3-0.9,1.7c-0.1,0-0.1,0.1-0.2,0.2c-0.7,1.4-1.8,2.3-3.3,2.6c0,0,0,0-0.1,0
			C11.3,14.9,12,14.3,12.6,13.6z"/>
	</g>
	<g id="形状_2_3_">
		<g>
			<path class="st0" d="M4.7,2.7L5,2.8C2.6,4.7,1.9,8.2,1.9,8.2L1.5,8.1c0.2,1.1,0.6,2.1,1,2.9c0,0,1.9-1.1,1.9-1.1
				C4.3,9.8,4.1,9.8,3.9,9.7c0,0,0-0.1,0-0.1C4.2,7.2,5.4,5.3,7.2,4c0,0,0,0,0.1,0C7.4,4,7.5,4,7.7,4.1V2.1C5.8,2.1,4.7,2.7,4.7,2.7
				z"/>
		</g>
	</g>
	<g id="形状_2_拷贝_3_">
		<g>
			<path class="st0" d="M14,8.3c-0.4-3.1-3.1-5.5-3.1-5.5l0.3-0.2c-1-0.4-2-0.5-3-0.5c0,0,0,1.6,0,2.1C8.3,4,8.4,4,8.6,3.9
				c0,0,0.1,0.1,0.1,0.1c1.9,1.4,3,3.4,3.2,5.6c0,0,0,0.1,0,0.1c-0.2,0.1-0.3,0.1-0.5,0.3l1.8,1.1c1-1.7,1-2.9,1-2.9L14,8.3z"/>
		</g>
	</g>
	<g id="形状_2_拷贝_2_3_">
		<g>
			<path class="st0" d="M11.3,10.2c0,0.2,0,0.3,0,0.5c0,0,0,0,0,0.1c-2,1-4.9,0.7-6.5,0.1c-0.1,0-0.1-0.1-0.1-0.1s0-0.3,0-0.6
				l-1.8,1c1,1.7,2,2.3,2,2.3l0-0.4c2.8,1.2,6.3,0,6.3,0l0,0.3c0.9-0.7,1.5-1.5,2-2.3C13.2,11.3,11.3,10.2,11.3,10.2z"/>
		</g>
	</g>
	<g id="形状_4_3_">
		<g>
			<path class="st0" d="M9.1,5.6l-0.2,0L8,6H7.9L7,5.6l-0.2,0C5,7,5.1,9.5,5.1,9.5c0.3,0.3,0.6,0,0.6,0c0-2,1.3-3.3,1.3-3.3l0.7,0.3
				v3.9c0.3,0.4,0.5,0,0.5,0l0-3.9L9,6.2c1.4,1.6,1.3,3.3,1.3,3.3c0.3,0.3,0.5,0,0.5,0C10.9,6.9,9.1,5.6,9.1,5.6z"/>
		</g>
	</g>
</g>
</svg>
